<svg fill="none" height="400" viewBox="0 0 400 400" width="400" xmlns="http://www.w3.org/2000/svg" xmlns:xlink="http://www.w3.org/1999/xlink"><linearGradient id="a"><stop offset="0" stop-color="#dc3e78"/><stop offset="1" stop-color="#1d4dc9"/></linearGradient><radialGradient id="b" cx="198.534" cy="-.159897" gradientUnits="userSpaceOnUse" r="390.853" xlink:href="#a"/><radialGradient id="c" cx="198.533" cy="-.159978" gradientUnits="userSpaceOnUse" r="390.853" xlink:href="#a"/><radialGradient id="d" cx="198.533" cy="-.159963" gradientUnits="userSpaceOnUse" r="390.853" xlink:href="#a"/><radialGradient id="e" cx="198.534" cy="-.159885" gradientUnits="userSpaceOnUse" r="390.853" xlink:href="#a"/><radialGradient id="f" cx="0" cy="0" gradientTransform="matrix(71823.4 0 0 67867.2 36637.6 143.011)" gradientUnits="userSpaceOnUse" r="1" xlink:href="#a"/><clipPath id="g"><path d="m0 0h400v400h-400z"/></clipPath><g clip-path="url(#g)"><path d="m0 0h400v400h-400z" fill="#fff"/><path d="m110.668 124.187v-103.1736c-43.34 21.6967-77.3638 58.3443-95.7871 103.1736z" fill="url(#b)"/><path d="m296.48 168.48h-141.494v63.053c50.224-.004 98.39-19.956 133.907-55.466z" fill="url(#c)"/><path d="m154.986 124.187h144.24c26.59.008 52.094-10.543 70.907-29.3336-22.007-35.5444-54.586-63.3112-93.168-79.408-38.583-16.096781-81.235-19.7166-121.979-10.35201z" fill="url(#d)"/><path d="m110.667 168.48h-108.18697c-3.306707 20.888-3.306707 42.166 0 63.053h108.18697z" fill="url(#c)"/><path d="m110.668 275.813h-95.7871c18.4268 44.831 52.4491 81.481 95.7871 103.187z" fill="url(#e)"/><path d="m332 195.64-24.707 24.707c-17.59 17.593-38.475 31.547-61.46 41.064-22.986 9.517-47.622 14.411-72.5 14.402h-18.347v119.107c12.753 2.928 25.762 4.598 38.84 4.987 111.507 3.386 205.867-87.747 206.174-199.347.028-10.742-.801-21.47-2.48-32.08-24.576.014-48.142 9.782-65.52 27.16z" fill="url(#f)"/></g></svg>