<?xml version="1.0" standalone="no"?>
<!DOCTYPE svg PUBLIC "-//W3C//DTD SVG 20010904//EN"
 "http://www.w3.org/TR/2001/REC-SVG-20010904/DTD/svg10.dtd">
<svg version="1.0" xmlns="http://www.w3.org/2000/svg"
 width="1625.000000pt" height="1625.000000pt" viewBox="0 0 1625.000000 1625.000000"
 preserveAspectRatio="xMidYMid meet">
<metadata>
Created by potrace 1.14, written by Peter Selinger 2001-2017
</metadata>
<g transform="translate(0.000000,1625.000000) scale(0.100000,-0.100000)"
fill="#000000" stroke="none">
<path d="M2460 13214 c-624 -84 -1140 -322 -1390 -639 -25 -31 -86 -87 -136
-125 -154 -116 -264 -250 -351 -425 -51 -102 -74 -164 -172 -471 -61 -190 -98
-286 -151 -392 -114 -229 -181 -460 -230 -787 -70 -478 -8 -923 174 -1243 l32
-57 -6 -155 c-3 -85 -2 -254 2 -375 14 -477 8 -832 -23 -1192 -10 -122 -10
-218 -1 -490 34 -945 122 -1283 408 -1572 74 -74 93 -101 148 -210 35 -69 76
-159 90 -200 40 -112 153 -386 187 -452 186 -369 494 -652 944 -870 460 -223
909 -253 1326 -90 101 39 251 121 322 175 18 14 37 26 41 26 5 0 45 -24 89
-54 321 -212 659 -274 984 -180 487 139 840 618 938 1273 29 196 37 347 25
491 -7 86 -8 204 -3 325 l8 190 68 -112 c76 -126 86 -150 128 -318 237 -939
774 -1606 1492 -1854 252 -87 457 -116 747 -108 293 8 499 58 755 182 412 199
749 550 1056 1100 30 55 78 115 154 195 61 63 131 142 156 175 148 192 286
453 386 725 19 52 37 97 40 100 2 3 2 -62 -2 -145 -8 -170 3 -301 41 -495 87
-437 299 -787 629 -1035 153 -115 183 -150 269 -308 42 -77 104 -180 138 -230
184 -273 488 -457 873 -528 162 -30 467 -33 593 -6 164 36 313 100 456 194 92
62 247 216 318 319 50 70 67 87 145 134 467 284 775 559 995 890 91 136 216
389 277 561 l48 136 125 124 c94 93 139 147 182 218 158 257 203 391 242 711
23 183 25 775 6 1085 l-14 210 51 105 c168 350 212 718 130 1095 -26 122 -61
228 -121 369 l-51 119 7 121 c3 67 13 177 21 246 42 356 5 695 -106 955 -25
60 -45 130 -59 210 -77 437 -235 801 -507 1163 -144 192 -386 430 -558 547
-204 140 -489 235 -834 280 -224 29 -404 73 -633 156 -185 67 -300 90 -483 96
-134 4 -180 2 -280 -15 -340 -59 -656 -229 -947 -510 -53 -51 -123 -128 -155
-169 -96 -127 -130 -159 -343 -336 -113 -94 -239 -204 -281 -244 l-76 -73 -27
63 c-72 169 -246 377 -419 501 -51 36 -101 78 -112 93 -88 123 -319 343 -465
442 -262 180 -659 304 -1010 318 -246 9 -457 -30 -830 -152 -206 -68 -223 -71
-505 -111 -295 -41 -448 -78 -646 -155 -298 -116 -492 -268 -685 -536 -65 -91
-216 -283 -261 -332 -11 -13 -14 -10 -24 20 -31 88 -145 293 -221 393 -140
187 -269 305 -450 411 -284 168 -646 260 -1163 295 -332 23 -361 28 -606 110
-336 113 -611 144 -909 104z m470 -809 c36 -9 146 -42 245 -75 260 -85 391
-107 810 -135 317 -21 594 -89 755 -184 158 -94 297 -293 350 -502 32 -125 58
-195 109 -292 43 -83 46 -94 44 -160 -9 -427 -6 -393 -46 -499 -60 -155 -79
-270 -57 -349 6 -21 54 -89 116 -165 115 -140 172 -243 198 -354 31 -130 18
-188 -80 -357 -141 -244 -204 -305 -324 -318 -134 -14 -318 -48 -382 -71 -39
-14 -100 -45 -136 -69 -168 -108 -283 -149 -402 -143 -70 3 -88 8 -174 52
-216 109 -280 234 -269 526 10 239 -64 388 -223 451 -88 34 -226 33 -310 -3
-172 -72 -333 -236 -407 -413 -71 -171 -107 -340 -107 -505 0 -132 19 -235 67
-371 l38 -104 3 -287 c4 -320 -4 -395 -56 -515 -47 -107 -63 -199 -72 -408
-19 -467 61 -1044 180 -1290 74 -154 150 -212 266 -202 121 9 205 70 272 195
54 102 84 135 162 177 87 48 119 84 151 173 23 63 24 80 24 277 0 116 -4 254
-8 307 l-9 98 -56 -8 c-84 -11 -202 -7 -245 7 -46 16 -102 62 -125 105 -15 27
-17 57 -14 221 2 169 0 205 -23 324 -14 73 -25 167 -25 207 0 134 55 225 165
276 45 21 64 23 195 22 135 -1 155 -3 285 -39 161 -43 239 -48 430 -26 105 11
134 11 235 -3 215 -30 362 -20 639 44 169 39 249 43 287 14 146 -108 167 -711
34 -988 -47 -100 -84 -135 -211 -199 -118 -59 -237 -147 -289 -212 -16 -20
-39 -62 -52 -93 -29 -76 -31 -253 -4 -437 19 -122 26 -426 26 -1080 0 -82 -26
-266 -51 -361 -26 -100 -93 -241 -152 -321 -154 -206 -377 -195 -602 31 -50
50 -123 136 -163 191 -114 159 -153 195 -213 195 -96 0 -167 -47 -298 -200
-147 -171 -244 -259 -340 -309 -242 -126 -508 -107 -818 59 -149 80 -240 146
-339 244 -139 141 -180 214 -314 571 -113 304 -266 570 -400 699 -39 38 -80
86 -90 106 -41 80 -78 282 -100 545 -20 252 -32 715 -20 835 29 304 32 429 26
1035 -6 623 -1 763 33 939 l9 48 -78 77 c-120 119 -169 236 -192 462 -18 177
8 420 72 677 21 83 51 159 113 290 68 141 106 240 186 488 134 409 142 424
317 533 44 28 79 62 125 122 134 177 257 259 516 342 299 97 599 127 793 82z
m5896 -46 c100 -14 301 -71 383 -110 132 -61 300 -208 417 -364 68 -92 111
-131 214 -197 102 -65 152 -119 192 -204 26 -56 31 -81 38 -192 9 -139 6 -129
84 -305 106 -240 118 -309 120 -672 l2 -290 56 -275 c32 -151 64 -324 73 -384
37 -256 37 -557 0 -756 -9 -47 -43 -177 -75 -290 -224 -777 -242 -876 -245
-1305 -1 -277 -4 -312 -29 -460 -53 -306 -133 -567 -246 -800 -85 -176 -164
-290 -299 -429 -131 -136 -141 -149 -271 -366 -163 -273 -223 -354 -365 -495
-193 -192 -346 -279 -572 -324 -299 -61 -630 3 -893 174 -308 199 -565 596
-696 1075 -106 390 -115 412 -258 650 -118 195 -250 465 -281 573 -86 305 -92
690 -15 1159 34 215 -5 372 -178 710 -131 255 -182 457 -182 716 0 227 36 408
136 682 57 157 69 211 109 485 55 371 81 459 177 586 62 82 97 150 98 186 0
59 67 159 267 401 51 62 112 141 135 175 100 149 182 222 311 275 153 64 318
102 602 136 196 25 310 51 535 126 326 109 478 134 656 109z m4124 -73 c36 -8
133 -37 215 -66 261 -89 450 -134 715 -169 297 -40 442 -96 595 -229 203 -177
360 -385 476 -627 86 -178 135 -360 170 -619 9 -72 20 -104 55 -171 94 -179
112 -346 74 -710 -27 -267 -30 -463 -7 -565 10 -41 42 -125 72 -187 80 -163
125 -338 125 -482 0 -142 -53 -311 -146 -468 -30 -50 -59 -106 -64 -124 -21
-71 -22 -183 -4 -424 12 -165 18 -360 18 -575 0 -457 -18 -593 -97 -742 -49
-94 -112 -167 -171 -202 -106 -62 -202 -217 -286 -461 -110 -319 -252 -539
-479 -742 -134 -120 -222 -184 -448 -325 -221 -137 -273 -183 -380 -334 -100
-141 -178 -198 -308 -224 -122 -25 -340 5 -470 64 -118 55 -177 120 -268 301
-109 219 -250 383 -458 538 -216 160 -304 308 -366 617 -13 67 -16 130 -15
292 4 299 -21 475 -98 702 -40 117 -59 200 -84 371 -19 128 -49 220 -95 289
-50 74 -91 106 -168 127 -84 24 -106 38 -139 95 -129 220 -129 885 0 1334 56
192 78 421 65 665 -18 334 -21 566 -10 715 38 506 153 913 322 1140 71 96 208
226 440 418 200 165 279 246 382 388 73 102 245 244 377 313 163 84 310 109
460 77z"/>
<path d="M8315 9860 c-30 -12 -41 -29 -60 -92 -11 -40 -26 -66 -51 -87 -32
-28 -41 -31 -107 -31 -150 0 -181 -24 -321 -251 -166 -266 -216 -379 -255
-571 -44 -216 -51 -518 -16 -667 8 -35 29 -94 45 -131 69 -156 70 -181 59
-745 -4 -234 5 -311 50 -440 173 -487 236 -628 327 -739 99 -120 204 -177 331
-178 63 -1 78 3 113 26 116 77 164 253 181 661 11 291 24 378 88 621 74 279
85 349 85 559 1 169 -1 188 -32 315 -42 174 -50 297 -29 455 25 188 29 283 17
385 -12 113 -29 167 -85 280 -67 134 -91 205 -124 355 -34 154 -67 234 -111
265 -29 21 -70 25 -105 10z"/>
<path d="M13032 9715 c-142 -64 -262 -264 -391 -650 -67 -200 -101 -343 -101
-425 0 -43 33 -157 60 -210 10 -19 39 -62 64 -95 52 -68 77 -135 108 -286 20
-98 21 -135 22 -629 2 -454 4 -538 19 -620 56 -304 146 -483 274 -548 199
-102 354 69 456 503 54 228 106 589 139 965 17 198 17 915 0 1035 -35 247 -94
457 -177 632 -75 159 -162 265 -257 314 -56 29 -169 36 -216 14z"/>
</g>
</svg>
