<svg fill="none" height="400" viewBox="0 0 400 400" width="400" xmlns="http://www.w3.org/2000/svg" xmlns:xlink="http://www.w3.org/1999/xlink"><linearGradient id="a" gradientUnits="userSpaceOnUse" x1="26.4228" x2="388.237" y1="138.523" y2="355.751"><stop offset="0" stop-color="#e54033"/><stop offset=".489583" stop-color="#feca1a"/><stop offset="1" stop-color="#afd803"/></linearGradient><linearGradient id="b"><stop offset=".15" stop-color="#6cbf00"/><stop offset="1" stop-color="#afd803"/></linearGradient><linearGradient id="c" gradientUnits="userSpaceOnUse" x1="102509" x2="79879.5" xlink:href="#b" y1="12116.2" y2="-11205.2"/><linearGradient id="d" gradientUnits="userSpaceOnUse" x1="88.9602" x2="315.856" y1="329.831" y2="274.556"><stop offset=".21" stop-color="#e54033"/><stop offset=".84" stop-color="#feca1a"/></linearGradient><linearGradient id="e" gradientUnits="userSpaceOnUse" x1="267.761" x2="337.787" y1="314.553" y2="315.078"><stop offset="0" stop-color="#feca1a"/><stop offset=".4" stop-color="#feca1a"/><stop offset="1" stop-color="#afd803"/></linearGradient><linearGradient id="f" gradientUnits="userSpaceOnUse" x1="109.253" x2="252.471" y1="331.242" y2="136.984"><stop offset=".16" stop-color="#e54033"/><stop offset=".84" stop-color="#feca1a"/></linearGradient><linearGradient id="g" gradientUnits="userSpaceOnUse" x1="88.3466" x2="82.013" y1="138.48" y2="263.786"><stop offset="0" stop-color="#feca1a"/><stop offset=".76" stop-color="#e54033"/></linearGradient><linearGradient id="h" gradientUnits="userSpaceOnUse" x1="158.58" x2="120.372" y1="105.942" y2="251.3"><stop offset=".16" stop-color="#feca1a"/><stop offset="1" stop-color="#e54033"/></linearGradient><linearGradient id="i" gradientUnits="userSpaceOnUse" x1="173.433" x2="315.337" xlink:href="#b" y1="36.3663" y2="88.7709"/><linearGradient id="j" gradientUnits="userSpaceOnUse" x1="102508" x2="79879.2" xlink:href="#b" y1="12116.1" y2="-11205.4"/><path clip-rule="evenodd" d="m192.063 110.514c.002-.002.003-.004.005-.007 14.103 7.222 29.534 9.697 44.301 9.654 8.58 7.866 15.719 17.105 22.426 26.592 2.782 3.963 5.29 8.11 7.508 12.412 5.129 9.858 8.901 20.288 12.718 30.842 1.119 3.095 2.243 6.201 3.405 9.306.364 1.329.745 2.659 1.142 3.989l.02-.006c5.895 20.181 14.503 41.739 26.036 59.538l-.011.005c3.815 5.847 8.089 11.383 12.781 16.557.923.997 1.868 1.984 2.813 2.973l.001.001.001.001c4.418 4.619 8.866 9.272 11.388 15.092 3.14 7.253 2.899 15.596 1.011 23.272-8.911 36.18-43.819 45.687-77.181 46.563l.016-.041c-12.508.248-24.93-.682-35.946-1.809 0 0-53.126-5.488-98.157-38.348l-1.453-1.079c-5.256-3.909-10.27-8.133-15.016-12.648-12.6215-12.024-23.8521-25.661-32.4402-40.633.0574-.057.1147-.115.172-.172-1.0165-1.826-1.9909-3.67-2.9233-5.533-8.3084-16.597-13.3718-34.664-13.6011-53.867-.3908-32.223 10.6536-65.222 31.6468-89.147-.0074-.019-.0149-.039-.0224-.059 11.3662-12.427 25.5742-22.19 42.3922-27.7479 10.544-3.5164 21.614-5.2048 32.729-4.9919 6.763 7.9269 14.993 14.4768 24.239 19.2918zm-25.878 210.83c7.6-2.769 14.8-6.493 21.515-11.082-6.757 4.558-13.968 8.284-21.515 11.082z" fill="url(#a)" fill-rule="evenodd"/><path clip-rule="evenodd" d="m302.329 84.2709c.006 0 .011 0 .017-.0004l.458-.2947c-59.231-100.8455-136.679-21.4491-136.679-21.4491l.111.1945c-.005.0011-.009.0022-.014.0034 44.536 77.9354 129.177 25.9909 136.107 21.5463z" fill="url(#c)" fill-rule="evenodd"/><path d="m228.908 257.963c-16.322 38.942-47.659 64.727-85.625 68.633-.816.108-11.207.927-16.943.504 45.031 32.86 98.157 38.348 98.157 38.348 11.374 1.164 24.249 2.118 37.17 1.781 4.55-11.857 7.111-25.433 6.377-40.835-1.706-35.773 19.076-54.138 41.58-63.56-11.534-17.799-20.141-39.357-26.036-59.537-17.573 4.666-39.89 19.339-54.68 54.666z" fill="url(#d)"/><path d="m267.333 326.142c.739 15.402-2.355 29.299-6.905 41.157 33.361-.877 68.269-10.384 77.18-46.564 1.889-7.676 2.13-16.019-1.01-23.272-3.063-7.067-8.965-12.412-14.204-18.067-4.9-5.403-9.344-11.202-13.286-17.337-22.485 9.425-43.481 28.314-41.775 64.083z" fill="url(#e)"/><path d="m282.426 199.313c-5.126-13.692-9.49-27.399-16.123-40.148-2.218-4.302-4.727-8.449-7.508-12.412-6.707-9.487-13.846-18.726-22.426-26.592-14.767.043-30.198-2.432-44.301-9.654-14.285 20.223-30.629 54.53-15.668 93.689 22.092 57.831-22.741 97.355-51.513 121.826l1.453 1.078c5.395.42 10.817.342 16.197-.233 37.963-3.91 71.114-30.316 87.436-69.254 14.794-35.327 36.314-48.747 53.864-53.417-.495-1.629-.965-3.257-1.411-4.883z" fill="url(#f)"/><path d="m94.2689 122.298c-21.9949 24.048-33.5908 57.866-33.1905 90.87.2293 19.203 5.2927 37.27 13.6011 53.867 1.2462 2.49 2.5675 4.946 3.9637 7.369 46.2398-46.327 29.5338-115.355 15.6257-152.106z" fill="url(#g)"/><path d="m177.178 204.196c-14.961-39.174 1.018-73.256 15.284-93.476-9.408-4.834-17.777-11.4573-24.638-19.4978-11.114-.2129-22.184 1.4755-32.728 4.9919-16.818 5.5579-31.026 15.3209-42.3923 27.7479 13.6013 35.944 29.9453 103.468-15.2721 148.778 8.5881 14.972 19.8188 28.609 32.4404 40.633 4.979 4.737 10.253 9.153 15.793 13.223 28.772-24.459 73.605-64.569 51.513-122.4z" fill="url(#h)"/><path d="m232.967 68.9511c31.31 12.3303 53.239 15.6698 69.136 15.1927l.459-.2947c-59.231-100.8455-136.679-21.4491-136.679-21.4491l.113.1978c16.706-2.9555 40.985-3.8748 66.971 6.3533z" fill="url(#i)"/><path d="m233.352 68.2528c-25.97-10.2126-50.39-9.8247-67.375-5.6551 44.537 77.9383 129.183 25.9871 136.107 21.546-15.909.4771-37.422-3.5606-68.732-15.8909z" fill="url(#j)"/></svg>