<svg fill="none" height="400" viewBox="0 0 400 400" width="400" xmlns="http://www.w3.org/2000/svg"><path d="m0 0h400v400h-400z" fill="#eaeaea"/><g fill="#63c"><path d="m281.519 58.3729c-18.522-17.1343-42.904-26.4687-68.097-26.0713-25.985.715-50.665 11.5814-68.779 30.2836-9.249 9.8013-16.477 21.3391-21.269 33.9505-4.791 12.6113-7.051 26.0483-6.651 39.5383v227.014c0 .613.12 1.22.354 1.786s.577 1.081 1.009 1.514c.432.434.945.777 1.51 1.012.564.235 1.169.355 1.78.355 1.225-.015 2.394-.513 3.254-1.387.861-.874 1.343-2.052 1.343-3.28v-227.241c-.407-12.292 1.621-24.543 5.965-36.0429 4.345-11.5004 10.92-22.0224 19.345-30.9572 16.426-16.9958 38.832-26.8649 62.422-27.4944h1.589c22.212.3295 43.532 8.8152 59.926 23.8512 17.223 16.2304 27.411 38.5903 28.374 62.2753.203 11.701-1.896 23.328-6.177 34.215-4.28 10.887-10.659 20.82-18.771 29.232-8.111 8.411-17.797 15.136-28.502 19.79-10.705 4.653-22.219 7.144-33.885 7.329-1.138.127-2.19.67-2.954 1.526s-1.186 1.964-1.186 3.113.422 2.258 1.186 3.114 1.816 1.399 2.954 1.526c25.561-.554 49.935-10.925 68.098-28.975 9.228-9.346 16.494-20.453 21.368-32.665s7.256-25.281 7.006-38.433c-.413-12.979-3.383-25.748-8.74-37.5696-5.357-11.8218-12.994-22.4626-22.472-31.3085z"/><path d="m213.592 163.625c6.568.012 12.992-1.932 18.459-5.584s9.731-8.849 12.252-14.933 3.187-12.781 1.912-19.245c-1.274-6.463-4.431-12.402-9.072-17.065-4.64-4.663-10.556-7.8401-16.997-9.1297-6.441-1.2895-13.119-.6334-19.188 1.8854-6.07 2.5183-11.258 6.7873-14.908 12.2643-3.65 5.478-5.599 11.918-5.599 18.507 0 8.822 3.49 17.283 9.703 23.527 6.214 6.243 14.643 9.758 23.438 9.773zm0-57.265c4.741-.011 9.379 1.389 13.326 4.025 3.947 2.635 7.025 6.386 8.845 10.778 1.819 4.391 2.298 9.226 1.376 13.891s-3.204 8.951-6.557 12.314c-3.352 3.363-7.625 5.652-12.275 6.577-4.651.925-9.471.444-13.849-1.381s-8.118-4.913-10.745-8.872-4.023-8.611-4.012-13.367c.015-6.351 2.537-12.438 7.014-16.929s10.545-7.021 16.877-7.036z"/><path d="m185.045 246.222c-1.224.015-2.393.514-3.254 1.388-.86.873-1.343 2.052-1.343 3.28v78.328c-.072.652-.006 1.312.193 1.938.2.625.529 1.201.965 1.69.437.489.971.88 1.568 1.148.598.268 1.245.406 1.899.406.655 0 1.302-.138 1.899-.406s1.132-.659 1.568-1.148c.437-.489.766-1.065.965-1.69.2-.626.265-1.286.193-1.938v-78.214c.015-.622-.094-1.242-.321-1.821-.227-.58-.567-1.108-1.001-1.553-.434-.446-.952-.8-1.524-1.042-.572-.241-1.186-.366-1.807-.366z"/><path d="m91.8701 187.761c-.6084-.007-1.2122.107-1.7764.335-.5643.228-1.0777.567-1.5106.996-.4329.428-.7765.939-1.0111 1.502-.2345.564-.3552 1.168-.3552 1.778v100.244c0 .61.1207 1.214.3552 1.777.2346.563.5782 1.074 1.0111 1.503s.9463.768 1.5106.996c.5642.228 1.168.342 1.7764.334 1.1994-.029 2.3396-.528 3.1772-1.39.8376-.861 1.3063-2.017 1.3059-3.22v-100.244c.0004-1.203-.4683-2.359-1.3059-3.221-.8376-.861-1.9778-1.36-3.1772-1.39z"/><path d="m213.592 197.04c13.168.068 26.06-3.788 37.042-11.077 10.982-7.29 19.56-17.685 24.646-29.87 5.086-12.184 6.452-25.609 3.924-38.573-2.527-12.964-8.835-24.8832-18.123-34.2476-9.287-9.3645-21.137-15.7525-34.048-18.3545s-26.301-1.301-38.473 3.7384c-12.173 5.0393-22.581 13.59-29.904 24.5685-7.323 10.9782-11.232 23.8902-11.233 37.1002v4.44c-.059.358-.059.723 0 1.082v147.205c0 1.223.485 2.396 1.347 3.261.862.864 2.031 1.35 3.25 1.35 1.224 0 2.399-.484 3.27-1.347.872-.863 1.368-2.036 1.383-3.264v-118.914c5.832 9.961 14.145 18.232 24.123 24s21.279 8.835 32.796 8.902zm0-124.0946c11.329-.0112 22.407 3.3492 31.832 9.6561s16.773 15.2766 21.114 25.7745c4.341 10.497 5.479 22.05 3.272 33.197-2.208 11.147-7.662 21.386-15.674 29.422-8.011 8.037-18.218 13.508-29.331 15.722-11.112 2.215-22.63 1.073-33.095-3.282-10.465-4.354-19.407-11.725-25.694-21.179-6.288-9.454-9.638-20.566-9.626-31.931.015-15.213 6.046-29.799 16.77-40.5569 10.724-10.7574 25.265-16.8076 40.432-16.8227z"/></g></svg>